<svg xmlns="http://www.w3.org/2000/svg" viewBox="0 0 500 500"><g id="freepik--background-complete--inject-39"><rect y="382.4" width="500" height="0.25" style="fill:#ebebeb"></rect><path d="M237,337.8H43.91a5.71,5.71,0,0,1-5.7-5.71V60.66A5.71,5.71,0,0,1,43.91,55H237a5.71,5.71,0,0,1,5.71,5.71V332.09A5.71,5.71,0,0,1,237,337.8ZM43.91,55.2a5.46,5.46,0,0,0-5.45,5.46V332.09a5.46,5.46,0,0,0,5.45,5.46H237a5.47,5.47,0,0,0,5.46-5.46V60.66A5.47,5.47,0,0,0,237,55.2Z" style="fill:#ebebeb"></path><path d="M453.31,337.8H260.21a5.72,5.72,0,0,1-5.71-5.71V60.66A5.72,5.72,0,0,1,260.21,55h193.1A5.71,5.71,0,0,1,459,60.66V332.09A5.71,5.71,0,0,1,453.31,337.8ZM260.21,55.2a5.47,5.47,0,0,0-5.46,5.46V332.09a5.47,5.47,0,0,0,5.46,5.46h193.1a5.47,5.47,0,0,0,5.46-5.46V60.66a5.47,5.47,0,0,0-5.46-5.46Z" style="fill:#ebebeb"></path><rect x="51.28" y="391.92" width="26" height="0.25" style="fill:#ebebeb"></rect><rect x="145.15" y="389.21" width="45.03" height="0.25" style="fill:#ebebeb"></rect><rect x="78.28" y="401.21" width="60.79" height="0.25" style="fill:#ebebeb"></rect><rect x="429.49" y="399.53" width="19.23" height="0.25" style="fill:#ebebeb"></rect><rect x="365.29" y="399.53" width="55.29" height="0.25" style="fill:#ebebeb"></rect><rect x="257.05" y="395.31" width="74.47" height="0.25" style="fill:#ebebeb"></rect><circle cx="224.19" cy="209.43" r="54.74" transform="translate(-63.08 101.74) rotate(-22.5)" style="fill:#f5f5f5"></circle><path d="M374.61,115c-2-10-10.11-16.79-20.87-16.19-6.75.38-13.31,3.58-18.52,8.5a13.57,13.57,0,0,0-10.36-3.64c-7.33.41-14.35,5.68-17.91,12.77a22.31,22.31,0,0,0-9.94-2.07,26,26,0,0,0-18.44,8.08,7.52,7.52,0,0,0-4.09-1.08c-4.16.05-7.84,3.09-8.23,6.78,0,.23,0,.45,0,.68L385,122.21C386.48,118.53,379.79,114.9,374.61,115Z" style="fill:#ebebeb"></path><path d="M441.36,185.47c-1.59-7.83-7.9-13.12-16.3-12.65a23.34,23.34,0,0,0-14.46,6.64,10.59,10.59,0,0,0-8.09-2.84c-5.74.32-11.22,4.44-14,10a17.53,17.53,0,0,0-7.76-1.62,20.29,20.29,0,0,0-14.4,6.32,5.92,5.92,0,0,0-3.2-.85c-3.25,0-6.12,2.42-6.43,5.3,0,.18,0,.35,0,.53l92.8-5.18C450.64,188.22,445.41,185.38,441.36,185.47Z" style="fill:#f5f5f5"></path><path d="M105.26,211.23a9.51,9.51,0,0,0-10.17-7.89,14.6,14.6,0,0,0-9,4.14,6.65,6.65,0,0,0-5-1.77c-3.58.2-7,2.77-8.74,6.23a10.84,10.84,0,0,0-4.84-1,12.65,12.65,0,0,0-9,3.94,3.67,3.67,0,0,0-2-.53,4,4,0,0,0-4,3.31c0,.11,0,.22,0,.33l57.94-3.24C111.05,213,107.79,211.18,105.26,211.23Z" style="fill:#f5f5f5"></path><path d="M268.81,145.66a9.91,9.91,0,0,0-1.09,0c-2-4.14-5.4-6.67-9.44-6.45a12.07,12.07,0,0,0-8,4.27c-3.51-8.06-9.81-13.07-17.37-12.65-6.1.34-11.9,4.15-16.39,10.1a11.21,11.21,0,0,0-9.55-4.65c-6.63.37-12.75,6.71-15.64,15.33h0a16.56,16.56,0,0,0-9.1-2.73c-6.52,0-12.47,3.76-16.32,9.59a5.72,5.72,0,0,0-3.76-1.4c-3.57,0-6.62,3.26-7.1,7.43l126.25-7.05A13.17,13.17,0,0,0,268.81,145.66Z" style="fill:#ebebeb"></path><polygon points="436.32 367.02 416.22 374.34 342.71 345.33 237.33 370.4 189.49 355.04 117.33 376.27 74.17 363.87 38.21 382.38 467.67 382.4 436.32 367.02" style="fill:#f5f5f5"></polygon><polygon points="138.45 99.25 143.83 82.28 159.45 71.84 149.53 71.91 136.38 81.72 129.54 93.39 126 110.36 123.07 89.48 112.57 74.97 97.92 64.37 78.43 64.09 91.77 67.14 110.74 82.28 112.81 108.57 101.11 105.11 87.91 104.14 97.92 107.55 110.86 114.51 114.89 138.32 111.59 370.84 102.56 382.4 139.06 382.4 128.2 373.47 126.86 359.04 126.73 164.94 128.93 123.93 138.45 99.25" style="fill:#f0f0f0"></polygon><polygon points="91.17 208.8 88.75 234.87 88.89 356.74 90.09 369.69 102.3 382.4 62.2 382.4 71.85 374.31 75.74 224.61 73.46 203.48 54.95 188.89 33.43 190.18 23.17 195.26 34.84 183.02 57.97 177.43 70.24 181.7 57.17 162.86 42.48 154.34 26.79 152.11 44.49 149.91 63.6 154.94 78.89 170.49 74.06 143.47 59.58 128.39 78.09 137.64 87.75 159.88 90.16 187.57 103.84 165.2 115.51 160.76 128.58 164.4 114.7 167 104.84 178.86 96.39 196.99 91.17 208.8" style="fill:#e0e0e0"></polygon><polygon points="413.89 208.8 411.47 234.87 411.61 356.74 412.81 369.69 425.02 382.4 384.92 382.4 394.57 374.31 398.46 224.61 396.18 203.48 377.68 188.89 356.15 190.18 345.89 195.26 357.56 183.02 380.69 177.43 392.96 181.7 379.89 162.86 365.2 154.34 349.51 152.11 367.21 149.91 386.33 154.94 401.62 170.49 396.79 143.47 382.3 128.39 400.81 137.64 410.47 159.88 412.88 187.57 426.56 165.2 438.23 160.76 451.3 164.4 437.42 167 427.56 178.86 419.12 196.99 413.89 208.8" style="fill:#e0e0e0"></polygon><polygon points="185.96 266.91 196.7 273.75 191.09 263.74 180.1 258.61 193.77 237.61 196.7 217.44 188.4 235.17 174.48 255.19 175.95 212.21 183.03 193.65 191.82 184.62 180.59 189.99 168.87 207.57 165.2 241.76 153.24 211.48 127.6 201.22 147.13 215.14 155.68 246.89 130.53 231.99 103.67 231.99 131.02 239.32 142.98 248.6 119.05 251.28 102.45 267.4 119.78 257.39 150.09 257.48 154.7 267.4 156.53 299.14 153 376.38 147.87 382.4 178.57 382.4 169.42 373.57 168.51 269.99 174.35 263.59 185.96 266.91" style="fill:#e0e0e0"></polygon><polygon points="454.94 280.02 464.46 286.08 459.48 277.2 449.74 272.66 461.86 254.04 464.46 236.16 457.1 251.88 444.76 269.63 446.06 231.53 452.34 215.07 460.13 207.06 450.17 211.83 439.78 227.41 436.54 257.72 425.93 230.88 403.2 221.78 420.52 234.12 428.09 262.27 405.8 249.06 381.98 249.06 406.23 255.56 416.84 263.78 395.62 266.16 380.9 280.45 396.27 271.57 423.14 271.66 427.23 280.45 428.85 308.59 425.71 377.06 421.17 382.4 448.39 382.4 440.27 374.57 439.46 282.75 444.65 277.07 454.94 280.02" style="fill:#e0e0e0"></polygon><polygon points="270.46 247.83 265.09 230.85 249.46 220.42 259.39 220.49 272.54 230.3 279.37 241.97 282.92 258.94 285.85 238.06 296.35 223.54 311 212.94 330.49 212.66 317.15 215.72 298.18 230.85 296.1 257.14 307.81 253.69 321.01 252.71 311 256.13 298.05 263.09 294.02 286.9 297.32 370.84 306.36 382.4 269.85 382.4 280.72 373.47 282.06 359.04 282.18 313.51 279.99 272.5 270.46 247.83" style="fill:#f0f0f0"></polygon><polygon points="317.75 160.99 320.17 187.06 320.03 356.74 318.82 369.69 306.62 382.4 346.72 382.4 337.06 374.31 333.17 176.8 335.45 155.67 353.96 141.08 375.49 142.36 385.75 147.45 374.08 135.2 350.94 129.62 338.67 133.88 351.75 115.05 366.43 106.53 382.12 104.3 364.42 102.1 345.31 107.13 330.02 122.68 334.85 95.65 349.33 80.58 330.83 89.83 321.17 112.07 318.76 139.76 305.08 117.39 293.41 112.94 280.33 116.58 294.21 119.19 304.07 131.04 312.52 149.17 317.75 160.99" style="fill:#e0e0e0"></polygon><polygon points="222.96 199.21 212.21 206.04 217.83 196.03 228.82 190.9 215.14 169.9 212.21 149.74 220.51 167.46 234.43 187.49 232.97 144.51 225.89 125.95 217.09 116.92 228.33 122.29 240.05 139.87 243.71 174.06 255.68 143.78 281.32 133.52 261.78 147.44 253.23 179.18 278.39 164.29 305.25 164.29 277.9 171.61 265.93 180.89 289.86 183.58 306.47 199.69 289.13 189.68 258.82 189.78 254.21 199.69 252.38 231.44 255.92 376.38 261.05 382.4 230.34 382.4 239.5 373.57 240.41 202.29 234.56 195.88 222.96 199.21" style="fill:#e0e0e0"></polygon></g><g id="freepik--Shadow--inject-39"><ellipse id="freepik--path--inject-39" cx="250" cy="416.24" rx="193.89" ry="11.32" style="fill:#f5f5f5"></ellipse></g><g id="freepik--tree-1--inject-39"><path d="M192.38,412c-.6-11.68-18.13-14.51-24.24-19.72-.65-3.48-4.2-11.07-7.94-13.51-.24-5.11-2.84-3.52-3.13-7.57s2.51-7.68-1.34-12.55c1.35-2.29-4.47-12.59-2.79-16.6s19.09-9.92,20.47-18.68a15.18,15.18,0,0,0,10.68-13.93c1.81-1.41,12.7-6,14.28-14.19,5-2.54,12.52-22.71,11.53-31,5.89-11.9,16.67-19.06,18.88-27.5a43.84,43.84,0,0,0-13.57,13.12c-4.68,6.79-9.16,4.54-9.16,4.54-4,3.61-4.86,6.92-2.16,12.78-1.91,7.26-2.79,14.3-13.7,19-3.67-.82-24.82,7.71-27.47,16.5-8.39-7.49-16.59-.66-16.59-.66s-11.81-35.25-19.07-44.18c-3.47-12.48,8.27-19.67,0-37.7-3.6-7.86,3.66-16.46.8-27,3.92-14.71,16.14-33.88,9.15-37.88-3.06-7-13.74-31.55-18.82-38.81,3.5,9.36,15.29,35.92,15.1,40.68s-4.33,8.32-6.46,16.13c-9.58,9.52-14.17,17.81-11.5,23.74-4.9,10.44-9.63,23.8-10.13,32.81s-5.41,8.41-6.91,19.46c-2.42,17.84,7.93,25.8,3.49,32.82-8.39,2.81-11.65,25.26-6.58,36-2.92,13.34,19.24,32.23,11.1,43.14s11.15,26.74,7.93,33.21-12.65,5.71-8.15,17.32C119.32,415.25,183.08,413.79,192.38,412Z" style="fill:#263238"></path><path d="M209.77,255.33c-2.74-5.1-2.31-7.89-3.5-12.67s-1,13.9-1,13.9Z" style="fill:#263238"></path><path d="M129.26,224.19c3-8.34,14.69-25.51,20.35-25.28,8.12,2.56,41.68,6.64,48.51,6.59-14.84-3.18-46.52-10.49-49.62-10.06s-17.68,13.84-21.14,12.43C122.19,215.82,126.21,221.7,129.26,224.19Z" style="fill:#263238"></path><path d="M100.09,295.19c-15.12-14-15-54.9-32.75-68.81s-3.85-28.67-3.85-28.67S57.22,167.78,59.3,162c2.4,11.38,9.5,36.88,9.5,36.88S61,213.51,74.9,220.43,94.6,263.61,101,266.87,118.27,292,100.09,295.19Z" style="fill:#263238"></path><path d="M173.41,323.36c8.81.13,31.5-6.68,35.76-10.41-19.62,4.49-28.53,1.12-32.08,5.16C170.79,320,173.41,323.36,173.41,323.36Z" style="fill:#263238"></path><path d="M202.09,283.73c-3-10.16-15.9-18.47-20.69-28.74,2.83,10.22,14.66,18.74,15.14,24.64s-6.13,1.69-6.35,6.55C195.73,287,202.09,283.73,202.09,283.73Z" style="fill:#263238"></path><path d="M197.13,284.5c-14.58.49-31.37-8.35-31.37-8.35s17.14,12.38,28.06,11.34C199.88,286.63,197.13,284.5,197.13,284.5Z" style="fill:#263238"></path><path d="M140,287.83c-.91-10.22,6.73-32.15,12.35-37.09-5.41,2.51-14.52,15.53-14.6,19.48-2.13-3.14-9.2-1.75-9.2-1.75Z" style="fill:#263238"></path><path d="M96.22,319.86c-11.91-20-30.72-51.38-38.15-60.21,19.49,8.73,21,28.07,36.49,32.7C103.57,304.17,96.22,319.86,96.22,319.86Z" style="fill:#263238"></path><path d="M173.2,185.65a27.38,27.38,0,0,1-3.9,4.39,44.1,44.1,0,0,1-4.72,3.63,57.86,57.86,0,0,1-5.17,3,53.8,53.8,0,0,1-5.53,2.54l-1.1-3.61a53,53,0,0,0,5.48-1.53,55.63,55.63,0,0,0,5.37-2.08,44.4,44.4,0,0,0,5.08-2.73A27.9,27.9,0,0,0,173.2,185.65Z" style="fill:#263238"></path><path d="M232.52,299a69.59,69.59,0,0,0-6.83-6.8q-1.81-1.59-3.71-3.09c-1.26-1-2.55-2-3.85-2.86l1.18-1.49c1.27,1.08,2.46,2.17,3.63,3.3s2.32,2.28,3.43,3.47A71.75,71.75,0,0,1,232.52,299Z" style="fill:#263238"></path><path d="M167.29,206.18c-1.4-.83-2.81-1.63-4.26-2.36s-2.91-1.42-4.39-2.07-3-1.26-4.5-1.82-3-1.11-4.56-1.57l.65-1.78c1.54.64,3,1.33,4.5,2s2.92,1.49,4.34,2.28,2.83,1.63,4.2,2.51S166,205.22,167.29,206.18Z" style="fill:#263238"></path><path d="M121.37,149.26a73.6,73.6,0,0,0,7.15,6.53q1.89,1.52,3.85,2.94c1.3.94,2.64,1.86,4,2.71L135.23,163c-1.31-1-2.55-2.07-3.78-3.16s-2.41-2.19-3.57-3.33A72.89,72.89,0,0,1,121.37,149.26Z" style="fill:#263238"></path><path d="M165,185.3a27.31,27.31,0,0,0-2.74,5.14c-.37.89-.7,1.8-1,2.71s-.56,1.85-.75,2.74l-1.86-.52c.39-1,.81-1.86,1.26-2.75s1-1.76,1.47-2.6A28.77,28.77,0,0,1,165,185.3Z" style="fill:#263238"></path><path d="M233.49,246.44a41.37,41.37,0,0,0-6.49,0c-1.08.08-2.15.2-3.21.35s-2.13.34-3.12.57l-.34-1.86c1.15-.1,2.24-.12,3.35-.12s2.21,0,3.31.12A41.76,41.76,0,0,1,233.49,246.44Z" style="fill:#263238"></path><path d="M177.65,271.71a42.73,42.73,0,0,0,3,6.13c.56,1,1.15,2,1.77,2.9s1.27,1.88,1.94,2.76l-1.62,1c-.58-1-1.09-2.06-1.59-3.1s-1-2.11-1.38-3.17A44.76,44.76,0,0,1,177.65,271.71Z" style="fill:#263238"></path><path d="M200.29,330.75c-1.69-.95-3.38-1.88-5.13-2.71s-3.5-1.64-5.29-2.38-3.58-1.43-5.4-2.08-3.66-1.25-5.48-1.77l.6-1.79c1.86.7,3.65,1.45,5.43,2.26s3.54,1.64,5.27,2.53,3.43,1.83,5.1,2.81S198.69,329.66,200.29,330.75Z" style="fill:#263238"></path><path d="M182.14,196.06a20.4,20.4,0,0,1-4.94,2.16,45.16,45.16,0,0,1-5.28,1.29c-1.78.34-3.58.6-5.39.81s-3.59.38-5.47.48l.17-3.77c1.68.21,3.47.36,5.21.47s3.52.15,5.28.13a44.12,44.12,0,0,0,5.27-.33A20.38,20.38,0,0,0,182.14,196.06Z" style="fill:#263238"></path><path d="M114.68,168.76a45.22,45.22,0,0,1,3.17,5.21,52,52,0,0,1,2.51,5.6q1.1,2.88,1.91,5.86a52.83,52.83,0,0,1,1.32,6.11l-3.85.22a50.14,50.14,0,0,0-.32-5.81q-.32-2.94-.92-5.85a48,48,0,0,0-1.54-5.76A43.28,43.28,0,0,0,114.68,168.76Z" style="fill:#263238"></path><path d="M95.48,197.93a45.3,45.3,0,0,1,3.18,5.21,53,53,0,0,1,2.5,5.6q1.09,2.88,1.92,5.86a55,55,0,0,1,1.32,6.11l-3.86.21a52.54,52.54,0,0,0-.31-5.81c-.21-2-.52-3.91-.92-5.85a51,51,0,0,0-1.54-5.76A44.68,44.68,0,0,0,95.48,197.93Z" style="fill:#263238"></path><path d="M138.55,244a41,41,0,0,1,2,5.46,45.86,45.86,0,0,1,1.25,5.72,57.46,57.46,0,0,1,.58,5.87,48.31,48.31,0,0,1-.08,6l-3.8-.65a46.14,46.14,0,0,0,1-5.45,53.06,53.06,0,0,0,.38-5.64,43.06,43.06,0,0,0-.27-5.67A39.19,39.19,0,0,0,138.55,244Z" style="fill:#263238"></path><path d="M77.81,189.39A33.34,33.34,0,0,1,75,194.15a38.51,38.51,0,0,1-3.57,4.31,50.16,50.16,0,0,1-4.13,3.85,43.69,43.69,0,0,1-4.67,3.39l-1.75-3.42A41.37,41.37,0,0,0,65.6,200,49.12,49.12,0,0,0,70.12,197a38.1,38.1,0,0,0,4.12-3.5A32.85,32.85,0,0,0,77.81,189.39Z" style="fill:#263238"></path><path d="M56.13,227.59a41.4,41.4,0,0,1,6,.45A47.69,47.69,0,0,1,68,229.27a57.21,57.21,0,0,1,5.78,1.87,50.57,50.57,0,0,1,5.63,2.51l-2.11,3.24a48.78,48.78,0,0,0-4.78-3.15,56.14,56.14,0,0,0-5.18-2.66A47.54,47.54,0,0,0,61.89,229,41.3,41.3,0,0,0,56.13,227.59Z" style="fill:#263238"></path><path d="M57.36,284c3.49,1.24,7,2.47,10.45,3.79,1.74.65,3.46,1.36,5.19,2s3.43,1.44,5.11,2.28c.85.4,1.7.8,2.52,1.27l1.25.68c.41.24.81.51,1.21.76a24.05,24.05,0,0,1,2.37,1.71,20.91,20.91,0,0,1,2.11,2.1c1.28,1.51,2.26,3,3.39,4.35a35.79,35.79,0,0,0,3.63,3.76l-2.73,2.67c-.63-.73-1.29-1.42-1.9-2.17s-1.2-1.5-1.73-2.3c-1.1-1.58-2-3.22-3-4.58a17.8,17.8,0,0,0-1.63-1.94,23.27,23.27,0,0,0-2-1.69c-.35-.26-.69-.54-1.06-.8l-1.12-.74c-.74-.51-1.53-1-2.31-1.43-1.55-.95-3.2-1.77-4.81-2.65s-3.29-1.67-4.95-2.45C64.1,287,60.73,285.52,57.36,284Z" style="fill:#263238"></path><path d="M49,259.73a38.76,38.76,0,0,1,3.61,2l3.51,2.17,7,4.4,7,4.38c1.16.72,2.33,1.44,3.49,2.13.58.34,1.18.68,1.73,1,.13.06.26.13.37.17l.05,0s0,0,0,0h0l-.11,0-.18,0h-.2a1.81,1.81,0,0,0-1.79,1.43,1.58,1.58,0,0,0,0,.53,1.87,1.87,0,0,0,0,.25l0,.13a1.74,1.74,0,0,0,.17.36l-.11-.1-.32-.28L76,275.55l.4.45.23.29a2.76,2.76,0,0,1,.45.78l0,.15a2,2,0,0,1,0,.26,1.84,1.84,0,0,1,0,.57,1.68,1.68,0,0,1-.56,1,2,2,0,0,1-1.31.52l-.26,0-.25,0-.17-.05-.16-.07-.24-.11-.18-.09c-.2-.12-.36-.23-.52-.34-.63-.42-1.18-.84-1.75-1.26-1.11-.84-2.19-1.69-3.27-2.55L62,269.85l-6.41-5.16-3.22-2.55A35.66,35.66,0,0,0,49,259.73Z" style="fill:#263238"></path><path d="M51.7,185.22a60.75,60.75,0,0,1,8.37,10.56c1.23,1.9,2.38,3.83,3.5,5.8s2.16,3.94,3.17,6l-3.56,1.31c-.65-2-1.41-4.13-2.21-6.17s-1.65-4.08-2.57-6.08A59.55,59.55,0,0,0,51.7,185.22Z" style="fill:#263238"></path><path d="M74.17,328.23a126.9,126.9,0,0,1,12,9.75A153.85,153.85,0,0,1,97.09,349q5.18,5.81,9.91,12c1.56,2.08,3.1,4.18,4.58,6.32s2.92,4.28,4.37,6.65l-5.82,8.33c-1.46-1.8-4.8-8.66-5.87-10.87s-2.23-4.46-3.4-6.67q-3.54-6.61-7.64-13a146.74,146.74,0,0,0-8.82-12.3A125.7,125.7,0,0,0,74.17,328.23Z" style="fill:#263238"></path><path d="M164.24,340.15a48.19,48.19,0,0,1-.55,8.78,59.36,59.36,0,0,1-2.07,8.72,73.83,73.83,0,0,1-3.25,8.47c-.64,1.38-1.3,2.76-2,4.12-.36.68-.73,1.36-1.12,2s-.77,1.32-1.29,2.1l-7.39-6.07c.41-.33,1-.84,1.42-1.31s1-1,1.45-1.46c1-1,1.88-2.05,2.79-3.11a72.94,72.94,0,0,0,5-6.74,56.45,56.45,0,0,0,4.13-7.42A46.82,46.82,0,0,0,164.24,340.15Z" style="fill:#263238"></path><path d="M233.1,283.92a78.57,78.57,0,0,0-11.59,2,89.47,89.47,0,0,0-11.11,3.47A109.51,109.51,0,0,0,199.84,294c-1.7.88-3.39,1.77-5,2.73s-3.31,2-4.73,2.94l-3.94-6.49c1-.49,1.93-.88,2.89-1.28s1.9-.76,2.85-1.12c1.9-.73,3.82-1.38,5.74-2a118.86,118.86,0,0,1,11.69-3.06A96.2,96.2,0,0,1,221.19,284,83.12,83.12,0,0,1,233.1,283.92Z" style="fill:#263238"></path><path d="M159.52,273.75a39.81,39.81,0,0,1-4.48,5.89,55,55,0,0,1-5.54,5.12,72.54,72.54,0,0,1-6.2,4.44c-1.08.69-2.17,1.36-3.29,2s-2.22,1.24-3.53,1.85L134,285.88c1-.17,2.22-.47,3.33-.77s2.27-.63,3.4-1a65.89,65.89,0,0,0,6.68-2.54,52.79,52.79,0,0,0,6.34-3.37A38,38,0,0,0,159.52,273.75Z" style="fill:#263238"></path><path d="M103.79,189.52a119.63,119.63,0,0,0,1.13,26.15,124,124,0,0,0,2.57,12.72c.53,2.09,1.12,4.16,1.74,6.2.33,1,.65,2,1,3s.72,2,1.06,2.86l-9.36,2.66c-.27-1.29-.45-2.37-.62-3.54s-.32-2.28-.47-3.41c-.26-2.28-.47-4.54-.62-6.8a129.89,129.89,0,0,1-.2-13.52,120.82,120.82,0,0,1,1.17-13.34A117.85,117.85,0,0,1,103.79,189.52Z" style="fill:#263238"></path><path d="M73.24,174.18a83.17,83.17,0,0,0-3.36,12.12,123.89,123.89,0,0,0-1.68,12.42q-.49,6.24-.5,12.5c0,2.09-.59,3.63.71,5.25s2.65,3.24,4,4.7l-3,2.26c-1.25-1.91-5.46-1.41-6.55-3.29s-2.12-3.76-3.13-5.66c-2-3.8,3.78-12.28,4.76-16.45A122.6,122.6,0,0,1,68,185.76,82.62,82.62,0,0,1,73.24,174.18Z" style="fill:#263238"></path><path d="M163.92,406.85a.51.51,0,0,1-.5-.48l-1.66-40.52a.5.5,0,1,1,1,0l1.67,40.52a.5.5,0,0,1-.48.52Z" style="fill:#263238"></path><path d="M167.38,406.85a.5.5,0,0,1-.5-.49L166,363.68a.5.5,0,0,1,.5-.51.49.49,0,0,1,.5.49l.84,42.68a.5.5,0,0,1-.49.51Z" style="fill:#263238"></path><path d="M171.54,406.75h0a.49.49,0,0,1-.49-.51l.72-40.33a.5.5,0,1,1,1,0L172,406.26A.51.51,0,0,1,171.54,406.75Z" style="fill:#263238"></path><path d="M175,406.75h0a.5.5,0,0,1-.48-.52l1.67-42.48a.5.5,0,1,1,1,0l-1.67,42.48A.5.5,0,0,1,175,406.75Z" style="fill:#263238"></path><path d="M180.14,406.85h0a.5.5,0,0,1-.49-.51l.65-40.52a.49.49,0,0,1,.5-.49.51.51,0,0,1,.5.51l-.65,40.52A.5.5,0,0,1,180.14,406.85Z" style="fill:#263238"></path><path d="M184.25,406.85h0a.5.5,0,0,1-.48-.52l1.6-42.68a.49.49,0,0,1,.52-.48.5.5,0,0,1,.48.52l-1.6,42.68A.5.5,0,0,1,184.25,406.85Z" style="fill:#263238"></path><path d="M188.42,406.75h0a.5.5,0,0,1-.46-.54l3-40.33a.5.5,0,1,1,1,.08l-3,40.33A.49.49,0,0,1,188.42,406.75Z" style="fill:#263238"></path><path d="M193.44,406.75h0a.51.51,0,0,1-.47-.53l2.54-42.48a.5.5,0,1,1,1,.06l-2.54,42.48A.49.49,0,0,1,193.44,406.75Z" style="fill:#263238"></path><path d="M197.68,406.85h0a.5.5,0,0,1-.46-.54l3.17-40.52a.51.51,0,0,1,.54-.46.5.5,0,0,1,.46.54l-3.18,40.52A.5.5,0,0,1,197.68,406.85Z" style="fill:#263238"></path><path d="M201.13,406.85h0a.51.51,0,0,1-.45-.55l4.27-42.68a.5.5,0,0,1,.55-.45.5.5,0,0,1,.44.55l-4.26,42.68A.5.5,0,0,1,201.13,406.85Z" style="fill:#263238"></path><path d="M205.3,406.75h-.06a.5.5,0,0,1-.43-.57l5.53-40.33a.5.5,0,0,1,1,.14l-5.53,40.33A.51.51,0,0,1,205.3,406.75Z" style="fill:#263238"></path><path d="M208.77,406.75h-.08a.51.51,0,0,1-.41-.58L215,363.69a.52.52,0,0,1,.58-.42.5.5,0,0,1,.41.58l-6.74,42.48A.5.5,0,0,1,208.77,406.75Z" style="fill:#263238"></path><path d="M213.89,406.85h-.06a.5.5,0,0,1-.43-.57l5.48-40.52a.5.5,0,0,1,1,.14l-5.49,40.52A.5.5,0,0,1,213.89,406.85Z" style="fill:#263238"></path><path d="M218,406.85h-.08a.51.51,0,0,1-.41-.58l6.7-42.68a.51.51,0,0,1,.57-.42.51.51,0,0,1,.42.57l-6.7,42.69A.5.5,0,0,1,218,406.85Z" style="fill:#263238"></path><path d="M222.18,406.75h-.09a.49.49,0,0,1-.4-.58l7.84-40.33a.49.49,0,0,1,.58-.4.51.51,0,0,1,.4.59l-7.84,40.33A.5.5,0,0,1,222.18,406.75Z" style="fill:#263238"></path><path d="M225.65,406.75h-.11a.49.49,0,0,1-.38-.59l9.17-42.49a.5.5,0,0,1,1,.21l-9.17,42.49A.5.5,0,0,1,225.65,406.75Z" style="fill:#263238"></path><path d="M157.8,374.77a.5.5,0,0,1,0-1l79.2-2.62a.49.49,0,0,1,.52.48.5.5,0,0,1-.48.52l-79.2,2.62Z" style="fill:#263238"></path><path d="M160.73,398.19a.5.5,0,0,1,0-1l73.17-.64h0a.5.5,0,1,1,0,1l-73.17.64Z" style="fill:#263238"></path><path d="M174,233.54c1.49-5.61,3-13.84-5.41-14.53s-7.14,11-6.8,13.8-9.41,1.73-11.95,17.76-4.28,34.48-4.28,34.48,2.09-1.65,6.17-4.65c-.47,9.77-1.27,19.26-9.82,30.89,15.3-8.38,27.32-27.94,31-42.79a54.36,54.36,0,0,1-2,14.73s4.94-14.87,6.15-29.5C178.17,239.47,172.72,238.25,174,233.54Z" style="fill:#263238"></path><path d="M168.53,225.16s-1.25-.73-3-1.64a1.51,1.51,0,0,0,1.08,1.9A2.16,2.16,0,0,0,168.53,225.16Z" style="fill:#fff"></path><path d="M171.13,225.47s1.18-.69,2.87-1.55a1.43,1.43,0,0,1-1,1.8A2.06,2.06,0,0,1,171.13,225.47Z" style="fill:#fff"></path><path d="M203.34,414.9c-.19.26,1.58.39,2.86-.07a50.4,50.4,0,0,1,1.78-8.39c2.44-2,5.1-8.48,5.1-8.48s-5.12,7.39-6.74,8.81C205,408,203.34,414.9,203.34,414.9Z" style="fill:#263238"></path><path d="M203.36,414.82a3.48,3.48,0,0,1-2.71.56c.7-1.66,2.64-8.24,3.15-10.27-.2-2.33,1-9.26,1-9.26s0,7.87.16,9.37S203.36,414.82,203.36,414.82Z" style="fill:#263238"></path><path d="M202.69,415.37c.1.25-2.28.5-3.71.11a40.71,40.71,0,0,0,2.31-8.4c-2.08-1.9-.87-8.31-.87-8.31s1.62,6.65,2.83,8.53C204,408.54,202.69,415.37,202.69,415.37Z" style="fill:#263238"></path><path d="M201.7,415.25c.15.48,2,.79,3.21.47a116,116,0,0,1,1.91-11.66c1.62-2.7,4-10.62,4-10.62s-4.66,9.09-5.7,10.83S201.7,415.25,201.7,415.25Z" style="fill:#263238"></path><path d="M204,415.06c.13.38,1.16.43,2.08.48,0-1.34,1.28-5.76,1.59-7.32,1.12-1.6,2.33-7,2.33-7s-2.85,5.69-3.55,6.72S204,415.06,204,415.06Z" style="fill:#263238"></path><polygon points="201.28 416.54 201.28 342.83 194.81 337.72 198.15 418.63 201.28 416.54" style="fill:#263238"></polygon><polygon points="220.02 371.02 173 379.31 167.64 376.09 213.74 355.06 219.11 358.28 220.02 371.02" style="fill:#263238"></polygon><polygon points="189 417.85 179.37 340.74 194.81 337.72 198.15 418.63 189 417.85" style="fill:#407BFF"></polygon><polygon points="214.66 367.8 167.64 376.09 165.73 359.86 213.74 355.06 214.66 367.8" style="fill:#407BFF"></polygon><path d="M170.25,373.08a.5.5,0,0,1-.5-.44l-1.18-10a.46.46,0,0,1,.11-.37A.49.49,0,0,1,169,362l15.34-1.53-2.17-17.3a.51.51,0,0,1,.4-.55l9.27-1.81a.49.49,0,0,1,.59.39.51.51,0,0,1-.39.59l-8.81,1.72,2.16,17.34a.51.51,0,0,1-.1.38.52.52,0,0,1-.35.18L169.62,363l1.12,9.53a.49.49,0,0,1-.43.56Z" style="fill:#263238"></path><path d="M191.67,415.57a.5.5,0,0,1-.49-.44l-5.66-45.27a.5.5,0,0,1,.44-.55.5.5,0,0,1,.56.43L192.17,415a.5.5,0,0,1-.43.56Z" style="fill:#263238"></path><path d="M122.48,415c.14.35-2.07.52-3.48-.09a67.84,67.84,0,0,0,.84-11.16c-2.26-2.69-3.18-11.29-3.18-11.29s3.61,9.83,5.07,11.72C123,405.76,122.48,415,122.48,415Z" style="fill:#fff"></path><path d="M122.49,414.89c.22.57,2,1.05,3.11.74-.25-2.2-.26-10.95-.14-13.65,1.08-3.1,2-12.31,2-12.31s-2.89,10.46-3.57,12.45S122.49,414.89,122.49,414.89Z" style="fill:#fff"></path><path d="M123.11,415.62c-.21.34,2.62.67,4.51.16a52.08,52.08,0,0,1,.2-11.18c3.23-2.52,4.07-11,4.07-11s-4.4,8.83-6.56,11.34C123.92,406.54,123.11,415.62,123.11,415.62Z" style="fill:#407BFF"></path><path d="M124.36,415.46c-.35.64-2.68,1.06-4.09.63.59-2.49,1.68-12.43,1.86-15.5-1-3.6-1.12-14.14-1.12-14.14s2.44,12.09,3.07,14.41S124.36,415.46,124.36,415.46Z" style="fill:#407BFF"></path><path d="M121.67,415.21c-.3.51-1.59.57-2.73.64.51-1.79.51-7.66.69-9.74-.79-2.12-.35-9.24-.35-9.24s1.44,7.56,1.93,8.94S121.67,415.21,121.67,415.21Z" style="fill:#407BFF"></path></g><g id="freepik--tree-2--inject-39"><path d="M307.82,399.47c.22.4-3.5-.22-5.84-1.34a39.39,39.39,0,0,0,1.87-11c-3.68-3.53-4.87-12.56-4.87-12.56s5.64,11.24,8,13.68C309,390.29,307.82,399.47,307.82,399.47Z" style="fill:#263238"></path><path d="M307.83,399.36c.36.66,3.29,1.78,5.19,1.87-.33-2.32,0-11.17.31-13.86,1.95-2.74,3.93-11.72,3.93-11.72s-5.27,9.54-6.5,11.32S307.83,399.36,307.83,399.36Z" style="fill:#263238"></path><path d="M308.85,400.33c-.38.26,4.35,1.61,7.54,1.77-.49-1.91-.09-9.14.79-11.24,5.51-1.38,7.27-9.7,7.27-9.7s-7.72,7.36-11.44,9.12C310.57,391.43,308.85,400.33,308.85,400.33Z" style="fill:#263238"></path><path d="M311,400.61c-.63.52-4.55.1-6.89-.84,1.09-2.3,3.33-12,3.76-15-1.56-4-1.3-14.7-1.3-14.7s3.58,13.1,4.56,15.68S311,400.61,311,400.61Z" style="fill:#263238"></path><path d="M306.44,399.39c-.52.41-2.67,0-4.59-.33.93-1.63,1.16-7.57,1.55-9.6-1.23-2.44-.21-9.48-.21-9.48s2.11,8.17,2.88,9.74S306.44,399.39,306.44,399.39Z" style="fill:#263238"></path><path d="M265.18,410.07c-1.19-17.36-6.75-41.3.09-49.86,3.57-4.47,7.82-5.47,12.3-6.35,12-2.37,17.89,4.61,17.89,4.61l-25,53.08Z" style="fill:#407BFF"></path><path d="M270.43,411.38c-1.19-17.35-8.49-44,.64-52.93,7.62-7.46,22.05-6.83,27.9,4.59s4,47.62,4,47.62Z" style="fill:#263238"></path><path d="M299.82,403.32l-1,0c0-.28,1.23-27.92-3-36.21a12.14,12.14,0,0,0-9-6.64,12.91,12.91,0,0,0-11,3.35l-.7-.72A14,14,0,0,1,287,359.44a13.11,13.11,0,0,1,9.75,7.17C301.06,375.14,299.88,402.18,299.82,403.32Z" style="fill:#407BFF"></path><path d="M261.54,169.09c-2.08-7.83-4.18-19.32,7.55-20.28s10,15.37,9.49,19.26,12.37-1.93,19.28,19.63,25,33.94,25,33.94-3.62-.89-10.53-2.33c6.27,12.13,12.78,23.71,30.38,33.51-24.27-1.76-50.87-19.61-64.13-36.33C284,227.83,289.67,234,289.67,234s-23.83-16.26-28.62-36.17C256.39,178.44,263.27,175.66,261.54,169.09Z" style="fill:#263238"></path><path d="M273.92,163.84s-6.05-2-10.93.94c.47-2.31,1.91-4.42,5.54-4.18A6.92,6.92,0,0,1,273.92,163.84Z" style="fill:#fff"></path><path d="M326.47,236.8c15.21,11.26,20.36,11.79,26.89,13.51C340.4,245.16,337.17,238.77,326.47,236.8Z" style="fill:#263238"></path><path d="M282.18,232.81a73.59,73.59,0,0,0,12.3,5.79A11.92,11.92,0,0,1,282.18,232.81Z" style="fill:#263238"></path><path d="M303.56,195.84c-3.22-4.5-5-13.55-5-13.55S304.35,190.07,303.56,195.84Z" style="fill:#263238"></path><path d="M400.82,414.67c.13.36-2.08.54-3.49-.09a74.4,74.4,0,0,0,.85-11.6c-2.27-2.79-3.19-11.73-3.19-11.73s3.61,10.22,5.08,12.18C401.28,405.07,400.82,414.67,400.82,414.67Z" style="fill:#263238"></path><path d="M400.82,414.55c.23.6,2,1.1,3.11.78-.24-2.29-.26-11.38-.14-14.19,1.08-3.22,2-12.79,2-12.79s-2.88,10.87-3.57,12.94S400.82,414.55,400.82,414.55Z" style="fill:#263238"></path><path d="M401.45,415.32c-.22.35,2.61.69,4.5.16a57,57,0,0,1,.2-11.62c3.23-2.61,4.07-11.47,4.07-11.47s-4.39,9.18-6.55,11.78C402.25,405.88,401.45,415.32,401.45,415.32Z" style="fill:#263238"></path><path d="M402.7,415.15c-.36.67-2.69,1.1-4.1.65.59-2.59,1.68-12.91,1.86-16.11-1-3.73-1.12-14.68-1.12-14.68s2.44,12.56,3.08,15S402.7,415.15,402.7,415.15Z" style="fill:#263238"></path><path d="M400,414.89c-.3.53-1.58.6-2.73.67.51-1.87.51-8,.69-10.13-.79-2.2-.35-9.6-.35-9.6s1.44,7.86,1.94,9.29S400,414.89,400,414.89Z" style="fill:#263238"></path><path d="M285.05,416.64c-.53-17,22.85-21,30.51-28.53.48-5.06,4.42-16.06,9.19-19.59-.25-7.42,3.44-5.09,3.37-11s-4.27-11.17.38-18.22c-2.09-3.33-1.59-17.83,1.87-24.1s-26.93-14.5-29.8-27.24c-5.55-1.47-14.52-8.23-16-20.28-2.6-2-17.85-8.72-20.93-20.67-7.07-3.72-24.84-39.28-27.56-50.16-14.2-13-33-18.29-40.26-28.21,8.33,2.35,15.43,4.71,25.65,11.85,10,7,15.2,2.55,15.2,2.55,7.46,3.16,10.28,7.05,9.37,15.43,6.29,8.52,12.34,28.51,27.62,35.41,4.88-1.17,34.45,11.32,39,24.1,14,6.47,22.36-.88,22.36-.88S347,206,355.75,193.06c-2.81-6.17-10.69-37-10.39-51.43-6.84-10-17.12-17.19-21.39-31.3-16.14-15-44-24.69-49.13-32.62-10.11-1.47-45.27-6.62-55.47-10.73,13.49,1.17,51.58,7,58.68,5s23.67,6.47,32.32,14.41C329.94,92,342.14,99,343.14,107.54c14.2,9.4,30.39,22.33,37.82,32.62s1.4,31.15,10.4,36.44-5.53,41.51,1.27,51.73c11.67,4.11,18.63,36.74,13,52.31,5.47,19.4-22.34,46.72-10.09,62.61s-12,38.79-6.92,48.2,17.75,8.35,13,25.19C384.19,421.72,297.82,419.3,285.05,416.64Z" style="fill:#407BFF"></path><path d="M231.84,185.57c1.35-7.42-.62-10.8-1.31-17.27s8.22,17.27,8.22,17.27Z" style="fill:#407BFF"></path><path d="M345.6,147.65c-10.1-8.08-37.68-17.34-45-18.51-10.95,1.61-55.95-.15-64.75-2.06,19.71-.73,61.9-3.09,65.82-1.62s30.71,5.59,34.13,1.91C348.48,133.69,347.69,143,345.6,147.65Z" style="fill:#407BFF"></path><path d="M396.48,247.43c18.84-20.28,14.06-79.65,36.41-99.78S449.39,114,449.39,114,478,84.61,479.68,76.09c-10.88,11.17-37.26,34.68-37.26,34.68A40.87,40.87,0,0,1,422,139c-18.08,10-21.7,62.62-30,67.32S371.53,242.73,396.48,247.43Z" style="fill:#407BFF"></path><path d="M300.57,288c-11.9.15-43.35-9.84-49.54-15.28,27,6.61,38.71,1.76,44,7.64C303.73,283.14,300.57,288,300.57,288Z" style="fill:#407BFF"></path><path d="M261.43,227.06c-3.67-13.72,7-31,5.67-45.85,3.87,13.71-5.22,30.56-1.47,37.81s7.16,7.84,8,14.89C266.24,235.09,261.43,227.06,261.43,227.06Z" style="fill:#407BFF"></path><path d="M244.43,213.34c-18-6.46-41.63,0-41.63,0s25.25-11.56,38.47-5.72C248.53,211.28,244.43,213.34,244.43,213.34Z" style="fill:#407BFF"></path><path d="M341.63,236.56c.05-14.84-12.77-46.73-20.93-53.93,7.59,3.67,21.4,22.63,22,28.36,2.52-4.56,12.24-2.5,12.24-2.5Z" style="fill:#407BFF"></path><path d="M401.14,283.29c8.54-17.93,19.91-46.14,24.27-54.67-14.54,10-12.23,25.87-24.83,30C393.89,269.18,401.14,283.29,401.14,283.29Z" style="fill:#407BFF"></path><path d="M271.54,104.3a46.12,46.12,0,0,0,4.65,6.32,57.22,57.22,0,0,0,5.55,5.46,74.68,74.68,0,0,0,6.15,4.76,64.82,64.82,0,0,0,6.59,4l-2.41,3.5a68.61,68.61,0,0,1-6.26-5.12,75,75,0,0,1-5.59-5.69,57.09,57.09,0,0,1-4.86-6.3A47.22,47.22,0,0,1,271.54,104.3Z" style="fill:#407BFF"></path><path d="M303.48,196.92c-1.71,1.34-3.4,2.7-5,4.16s-3.18,2.95-4.68,4.51-3,3.13-4.4,4.76-2.8,3.29-4.07,5l-1.52-1.12c1.48-1.67,3-3.24,4.55-4.79s3.15-3,4.79-4.5,3.32-2.85,5-4.19S301.68,198.13,303.48,196.92Z" style="fill:#407BFF"></path><path d="M278.93,137.06c1.89-1,3.8-2.05,5.76-2.93s3.94-1.73,5.94-2.49,4-1.46,6.06-2.1,4.07-1.22,6.18-1.72l.11,2c-2,.31-4.05.72-6.07,1.19s-4.05,1-6.07,1.61-4,1.26-6,2S280.88,136.17,278.93,137.06Z" style="fill:#407BFF"></path><path d="M267.81,58.78a57.81,57.81,0,0,1,5,2.87c1.62,1,3.2,2.15,4.72,3.32s3,2.39,4.46,3.67,2.82,2.6,4.17,4l-1.62,1.39c-1.14-1.45-2.4-2.89-3.68-4.27s-2.64-2.72-4-4-2.84-2.52-4.34-3.7S269.43,59.82,267.81,58.78Z" style="fill:#407BFF"></path><path d="M282.23,106a42.68,42.68,0,0,1,2,3.86c.61,1.32,1.17,2.68,1.67,4.06s1,2.79,1.37,4.22.77,2.87,1.07,4.38l-2,.51c-.12-1.45-.31-2.93-.55-4.38s-.53-2.9-.86-4.33-.73-2.84-1.17-4.23S282.79,107.34,282.23,106Z" style="fill:#407BFF"></path><path d="M193.94,182.63c1.47-.68,2.95-1.33,4.46-1.88s3-1.08,4.57-1.54,3.08-.87,4.64-1.23,3.1-.68,4.71-.94l-.08,2c-1.48.08-3,.23-4.55.42s-3.07.44-4.6.73-3.07.64-4.59,1S195.46,182.1,193.94,182.63Z" style="fill:#407BFF"></path><path d="M216.14,224.59c.67-1.46,1.37-2.91,2.17-4.32s1.62-2.83,2.51-4.2,1.81-2.73,2.78-4.06,2-2.63,3.05-3.94l1.39,1.26c-1.12,1.11-2.23,2.31-3.3,3.51s-2.12,2.46-3.12,3.73-2,2.58-2.89,3.91S217,223.19,216.14,224.59Z" style="fill:#407BFF"></path><path d="M265.08,298.6c2.08-1.55,4.19-3.07,6.38-4.46s4.41-2.73,6.68-4,4.56-2.44,6.89-3.56,4.67-2.16,7.1-3.13l.43,1.88c-2.34.77-4.73,1.66-7.07,2.61s-4.68,2-7,3.07-4.59,2.27-6.83,3.52S267.24,297.18,265.08,298.6Z" style="fill:#407BFF"></path><path d="M258.15,117.36a27.41,27.41,0,0,0,6.19,3.29,55.79,55.79,0,0,0,6.79,2.14c2.3.6,4.66,1.08,7,1.49s4.78.75,7.13,1l-1.14,3.95c-2.44-.58-4.75-1.26-7.07-2s-4.6-1.56-6.81-2.49a54.28,54.28,0,0,1-6.46-3.14A27.09,27.09,0,0,1,258.15,117.36Z" style="fill:#407BFF"></path><path d="M322.83,74a52.32,52.32,0,0,0,1.05,8.09,63.76,63.76,0,0,0,2.19,7.68,76.07,76.07,0,0,0,3,7.27,66.49,66.49,0,0,0,3.7,6.78l-3.59,2.28a73.15,73.15,0,0,1-2.95-7.66q-1.25-3.89-2.12-7.91a65.43,65.43,0,0,1-1.23-8.17A54.23,54.23,0,0,1,322.83,74Z" style="fill:#407BFF"></path><path d="M338.64,172.85a55.89,55.89,0,0,0-1,8.36,68.1,68.1,0,0,0,.17,8.22q.33,4.06,1.05,8a72.56,72.56,0,0,0,1.8,7.69l-3.92,1.42a75,75,0,0,1-.89-8.38q-.23-4.2-.06-8.45a73.8,73.8,0,0,1,.85-8.48A58.14,58.14,0,0,1,338.64,172.85Z" style="fill:#407BFF"></path><path d="M438.79,91.88a51.13,51.13,0,0,0,1.06,8.09,61.45,61.45,0,0,0,2.18,7.68,77.62,77.62,0,0,0,3,7.27,67.74,67.74,0,0,0,3.7,6.79L445.15,124a70.13,70.13,0,0,1-2.94-7.66,81.55,81.55,0,0,1-2.13-7.91,65.43,65.43,0,0,1-1.23-8.17A54.23,54.23,0,0,1,438.79,91.88Z" style="fill:#407BFF"></path><path d="M419.21,119.67a59.46,59.46,0,0,0-2.12,8.3,71.92,71.92,0,0,0-1,8.32c-.16,2.76-.19,5.51-.09,8.23a76.26,76.26,0,0,0,.7,8l-4,.9a81.34,81.34,0,0,1,.3-8.58q.36-4.28,1.11-8.53a75.93,75.93,0,0,1,2-8.44A63,63,0,0,1,419.21,119.67Z" style="fill:#407BFF"></path><path d="M431.08,251.21a64.53,64.53,0,0,0-7.6,4.6,84,84,0,0,0-7,5.48q-3.35,2.93-6.43,6.09c-2,2.11-4.05,4.33-5.82,6.52l-2.89-2.38c2.23-2.24,4.46-4.24,6.81-6.2s4.74-3.79,7.21-5.54A87.15,87.15,0,0,1,423,255,63.83,63.83,0,0,1,431.08,251.21Z" style="fill:#407BFF"></path><path d="M436.32,229.45a46.87,46.87,0,0,0-5.34,3.4,57.14,57.14,0,0,0-4.88,4c-1.55,1.42-3.05,2.89-4.47,4.42s-2.81,3.14-4,4.7l-2.89-2.39c1.65-1.61,3.28-3,5-4.37s3.46-2.66,5.25-3.87a64,64,0,0,1,5.54-3.33A48.79,48.79,0,0,1,436.32,229.45Z" style="fill:#407BFF"></path><path d="M471.91,109.7a61.33,61.33,0,0,0-8.21,3c-2.67,1.23-5.27,2.59-7.83,4s-5.06,3-7.51,4.68-4.89,3.37-7.16,5.14l-2.05-3.16c2.64-1.63,5.24-3.08,7.91-4.5s5.36-2.71,8.09-3.92,5.5-2.28,8.29-3.22A58.85,58.85,0,0,1,471.91,109.7Z" style="fill:#407BFF"></path><path d="M421.11,317.34a106.79,106.79,0,0,0-8.71,11.37,130.53,130.53,0,0,0-7.13,12.14q-3.21,6.21-5.85,12.59c-.87,2.13-1.71,4.26-2.48,6.39-.4,1.07-.77,2.14-1.13,3.2s-.71,2.16-1,3.11l-9.37-2.47c.6-1.23,1.16-2.28,1.75-3.38s1.18-2.17,1.79-3.23c1.22-2.14,2.48-4.24,3.78-6.32q3.9-6.24,8.32-12.13a142.79,142.79,0,0,1,9.39-11.28A109.82,109.82,0,0,1,421.11,317.34Z" style="fill:#407BFF"></path><path d="M314.88,312.42a76.16,76.16,0,0,0,4.56,12,93.67,93.67,0,0,0,6.23,10.92,119.49,119.49,0,0,0,7.41,10c1.32,1.58,2.67,3.14,4.06,4.65.7.75,1.4,1.5,2.11,2.22s1.46,1.47,2.12,2.07l-8,7.11c-.71-1-1.28-1.89-1.88-2.84s-1.17-1.87-1.72-2.81c-1.12-1.89-2.18-3.81-3.2-5.74A127.14,127.14,0,0,1,321.12,338a100.81,100.81,0,0,1-4.07-12.54A82.08,82.08,0,0,1,314.88,312.42Z" style="fill:#407BFF"></path><path d="M281.08,195.59a100.79,100.79,0,0,0,3.52,15.93,121.51,121.51,0,0,0,5.75,14.93,151,151,0,0,0,7.36,14c1.35,2.25,2.74,4.47,4.19,6.63s3,4.33,4.48,6.27l-6.84,5.09c-1.44-2.48-2.68-4.84-3.89-7.31s-2.33-4.94-3.42-7.44a160.14,160.14,0,0,1-5.68-15.39,128.37,128.37,0,0,1-3.92-16.06A107.13,107.13,0,0,1,281.08,195.59Z" style="fill:#407BFF"></path><path d="M313.69,216a60,60,0,0,0,8,6.58,78.34,78.34,0,0,0,8.94,5.25A102.34,102.34,0,0,0,340.2,232c1.63.61,3.26,1.19,4.92,1.72s3.36,1,4.92,1.42l-3.51,7.6c-1.79-.83-3.34-1.65-4.94-2.55s-3.13-1.8-4.65-2.75a100.5,100.5,0,0,1-8.76-6.17,78.3,78.3,0,0,1-7.89-7.1A60.5,60.5,0,0,1,313.69,216Z" style="fill:#407BFF"></path><path d="M370.12,92.39a96.57,96.57,0,0,1,6,15.07,128.41,128.41,0,0,1,3.73,16.12q1.38,8.24,2,16.71c.18,2.82.32,5.66.37,8.51s.06,5.68-.07,8.71l-8,.16c.42-2.62.77-5.46,1-8.22s.48-5.55.63-8.33c.3-5.56.32-11.1.09-16.61a132.56,132.56,0,0,0-1.69-16.36A99.51,99.51,0,0,0,370.12,92.39Z" style="fill:#407BFF"></path><path d="M454.92,78.15a117.12,117.12,0,0,1-2.39,17,155.31,155.31,0,0,1-4.74,17q-2.85,8.42-6.48,16.68c-1.22,2.75-2.47,5.49-3.81,8.21s-2.7,5.37-4.27,8.17l-6.63-3.66c1.61-2.27,3.27-4.78,4.82-7.25s3.07-5,4.54-7.56q4.4-7.65,8.11-15.62a159.31,159.31,0,0,0,6.52-16.23A121.33,121.33,0,0,0,454.92,78.15Z" style="fill:#407BFF"></path><path d="M260.1,421.65c-.11.3,1.77.45,3-.07a57.39,57.39,0,0,1-.72-9.53c1.93-2.29,4.32-5.55,4.32-5.55s-5.2,4.39-5.94,5.92S260.1,421.65,260.1,421.65Z" style="fill:#263238"></path><path d="M260.92,421.56c-.19.49-1.7.9-2.66.63.22-1.88.23-9.34.13-11.65-.93-2.64-1.75-10.5-1.75-10.5s2.47,8.92,3.05,10.63S260.92,421.56,260.92,421.56Z" style="fill:#263238"></path><path d="M259.56,422.18c.19.29-2.23.57-3.84.14a44.51,44.51,0,0,0-.17-9.54c-2.75-2.15-6.21-5.23-6.21-5.23s7.21,4,8.33,5.48S259.56,422.18,259.56,422.18Z" style="fill:#407BFF"></path><path d="M258.5,422.15c.31.47,2.29.77,3.5.44a107.67,107.67,0,0,1-1.51-11.6c.88-2.7,1-10.59,1-10.59s-2.14,9.07-2.7,10.81S258.5,422.15,258.5,422.15Z" style="fill:#407BFF"></path><path d="M263.22,422.13c-.35.36-1.43.15-2.39,0,.8-1.38,2-6.24,2.6-7.92-.2-1.92,1.64-7.72,1.64-7.72s-.38,6.56-.26,7.8S263.22,422.13,263.22,422.13Z" style="fill:#407BFF"></path><path d="M373.89,418.77c-.16.52,2.5.77,4.2-.13a125.19,125.19,0,0,1-1-16.58c2.73-4,6.1-9.66,6.1-9.66s-7.34,7.65-8.37,10.31S373.89,418.77,373.89,418.77Z" style="fill:#fff"></path><path d="M375.05,418.6c-.27.86-2.4,1.57-3.75,1.11.3-3.28.32-16.26.18-20.27-1.31-4.6-2.46-18.28-2.46-18.28s3.47,15.53,4.3,18.5S375.05,418.6,375.05,418.6Z" style="fill:#fff"></path><path d="M373.14,419.7c.26.5-3.15,1-5.42.23a96.78,96.78,0,0,0-.24-16.6c-3.89-3.74-8.76-9.1-8.76-9.1s10.16,7,11.75,9.54S373.14,419.7,373.14,419.7Z" style="fill:#fff"></path><path d="M371.64,419.63c.43.83,3.23,1.35,4.92.77-.69-3.23-1.93-16.17-2.12-20.18,1.25-4.7,1.45-18.43,1.45-18.43s-3,15.78-3.8,18.81S371.64,419.63,371.64,419.63Z" style="fill:#fff"></path><path d="M378.29,419.6c-.5.63-2,.26-3.36-.06,1.12-2.39,2.84-10.85,3.66-13.77-.29-3.35,2.31-13.43,2.31-13.43s-.54,11.41-.37,13.56S378.29,419.6,378.29,419.6Z" style="fill:#fff"></path><path d="M257.83,302.84a.51.51,0,0,1-.5-.5c0-1.73-.06-4.83-.13-8.75-.39-20.52-1.21-63.2,3-70.82a.5.5,0,0,1,.88.49c-4.11,7.38-3.26,51.48-2.9,70.31.07,3.93.13,7,.13,8.77A.5.5,0,0,1,257.83,302.84Z" style="fill:#263238"></path><path d="M254,302.84c-5.26,0-9.54,9.53-9.54,21.25s4.28,21.24,9.54,21.24,9.54-9.53,9.54-21.24S259.27,302.84,254,302.84Z" style="fill:#fff"></path><path d="M254,346.33c-5.91,0-10.54-9.77-10.54-22.24s4.63-22.25,10.54-22.25,10.54,9.77,10.54,22.25S259.92,346.33,254,346.33Zm0-43.49c-5.26,0-9.54,9.53-9.54,21.25s4.28,21.24,9.54,21.24,9.54-9.53,9.54-21.24S259.27,302.84,254,302.84Z" style="fill:#263238"></path><path d="M259,324.09c0,6.88-2.24,12.46-5,12.46s-5-5.58-5-12.46,2.24-12.46,5-12.46S259,317.2,259,324.09Z" style="fill:#263238"></path><path d="M254,337.05c-3.08,0-5.5-5.7-5.5-13s2.42-13,5.5-13,5.5,5.69,5.5,13S257.1,337.05,254,337.05Zm0-24.92c-2.17,0-4.5,4.8-4.5,12s2.33,12,4.5,12,4.5-4.81,4.5-12S256.18,312.13,254,312.13Z" style="fill:#263238"></path><path d="M264,302.34H254c5.55,0,10,9.74,10,21.75s-4.49,21.74-10,21.74h10c5.55,0,10-9.73,10-21.74S269.56,302.34,264,302.34Z" style="fill:#263238"></path><path d="M264,346.33H254a.5.5,0,0,1-.5-.5.51.51,0,0,1,.5-.5c5.26,0,9.54-9.53,9.54-21.24s-4.28-21.25-9.54-21.25a.51.51,0,0,1-.5-.5.5.5,0,0,1,.5-.5h10c5.91,0,10.54,9.77,10.54,22.25S269.92,346.33,264,346.33Zm-6.81-1H264c5.26,0,9.54-9.53,9.54-21.24s-4.28-21.25-9.54-21.25H257.2c4.31,2.79,7.35,11.13,7.35,21.25S261.51,342.54,257.2,345.33Z" style="fill:#263238"></path><path d="M255.36,237.61a.51.51,0,0,1-.39-.19c-2.23-2.79-.94-12.64,3.93-16.73a.51.51,0,0,1,.71.06.49.49,0,0,1-.06.7c-4.43,3.72-5.77,12.88-3.8,15.35a.5.5,0,0,1-.08.7A.51.51,0,0,1,255.36,237.61Z" style="fill:#263238"></path><path d="M253.9,312.45a.66.66,0,0,1-.45-.19c-.66-.76-1-7.42.1-10.12a.5.5,0,0,1,.66-.26.5.5,0,0,1,.26.65c-.77,1.81-.74,5.24-.54,7.36a50.21,50.21,0,0,1,2.74-6.71.5.5,0,0,1,.67-.23.51.51,0,0,1,.23.67c0,.06-2.54,5.13-3.07,8.09,0,.2-.1.62-.48.72Zm.33-.81h0Z" style="fill:#263238"></path></g><g id="freepik--Bats--inject-39"><path d="M207,124.33c-12.09,3-9.72,12-16.6,20.83a2.77,2.77,0,0,0-1.1-1.65,23.59,23.59,0,0,0-1.43-3.23l-.05,2.66a8.3,8.3,0,0,0-1.12-.21,9.09,9.09,0,0,0-1,.62l-1-2.45a24.15,24.15,0,0,0-.11,3.53,2.72,2.72,0,0,0-.4,1.94c-9.67-5.56-10.86-14.82-23.21-13.08a17.28,17.28,0,0,0-7.33,3.33s7.82,4.48,8.46,9.66c4.73-.82,9,.8,9.29,5.42,3.14-1.18,12.88-1.29,13.76-1.3.07.3.14.6.2.91,1.17-.09,3.27,1.32,3.27,1.32s1.42-2.1,2.54-2.45c-.06-.31-.11-.62-.15-.92.82-.32,9.89-3.87,13.24-4-1.49-4.38,1.89-7.49,6.58-8.51-1.35-5,4.22-12.12,4.22-12.12A17.33,17.33,0,0,0,207,124.33Z" style="fill:#263238"></path><path d="M93.32,182a1.37,1.37,0,0,0-.26-1,10.9,10.9,0,0,0-.15-1.82l-.46,1.28c-.28-.17-.51-.29-.51-.29s-.26,0-.57.14L91.28,179a12,12,0,0,0-.65,1.7,1.43,1.43,0,0,0-.51.86c-3.75-4.31-2.77-9-9-10.21a8.86,8.86,0,0,0-4.11.38s3,3.47,2.48,6.09c2.42.39,4.23,1.9,3.58,4.17,1.72,0,6.48,1.55,6.87,1.68,0,.15,0,.31-.06.47.58.15,1.36,1.19,1.36,1.19a3.88,3.88,0,0,1,1.64-.76c0-.16.05-.32.08-.47.4,0,5.42-.22,7.07.3,0-2.36,2.16-3.3,4.6-3,.19-2.66,4.07-5.15,4.07-5.15a8.82,8.82,0,0,0-3.83-1.51C98.48,174.18,98.11,178.94,93.32,182Z" style="fill:#263238"></path><path d="M408.92,108.1c-5.44-.49-5.76,3.59-9.86,6.23a1.25,1.25,0,0,0-.22-.82,10,10,0,0,0-.13-1.56l-.4,1.1a4.86,4.86,0,0,0-.43-.25s-.22,0-.49.12l-.08-1.17a11,11,0,0,0-.56,1.46,1.21,1.21,0,0,0-.43.73c-3.21-3.68-2.38-7.69-7.73-8.74a7.61,7.61,0,0,0-3.52.33s2.6,3,2.12,5.21c2.07.34,3.62,1.63,3.07,3.57,1.47,0,5.55,1.33,5.88,1.44,0,.13,0,.27-.05.4.5.13,1.16,1,1.16,1a3.41,3.41,0,0,1,1.41-.65c0-.14,0-.27.07-.4.34,0,4.63-.19,6,.26,0-2,1.86-2.83,3.94-2.58.17-2.28,3.49-4.41,3.49-4.41A7.52,7.52,0,0,0,408.92,108.1Z" style="fill:#263238"></path><path d="M375.74,52.56c-9.11,3.15-6.67,9.95-11.37,17.19a2.24,2.24,0,0,0-.95-1.19,18.75,18.75,0,0,0-1.33-2.41l.15,2a8.47,8.47,0,0,0-.88-.08,6.69,6.69,0,0,0-.71.54l-1-1.82a18,18,0,0,0,.15,2.76,2.15,2.15,0,0,0-.17,1.49c-7.82-3.62-9.38-10.67-18.77-8.48a13.37,13.37,0,0,0-5.42,3.06s6.33,2.92,7.17,6.86c3.59-1,7,0,7.53,3.54,2.35-1.13,9.9-1.88,10.51-1.94.07.23.15.45.22.69a6,6,0,0,1,2.61.79s1-1.71,1.78-2.06c-.07-.24-.12-.47-.18-.7.55-.27,7.34-3.65,9.93-3.95-1.45-3.27.95-5.9,4.49-7-1.38-3.79,2.42-9.63,2.42-9.63A13.45,13.45,0,0,0,375.74,52.56Z" style="fill:#263238"></path><path d="M203.12,103a3.67,3.67,0,0,0-.74-2.53,31.34,31.34,0,0,0-.53-4.66l-1.11,3.35a12.9,12.9,0,0,0-1.35-.71,13.33,13.33,0,0,0-1.47.4l-.34-3.52A30.82,30.82,0,0,0,196,99.76a3.68,3.68,0,0,0-1.28,2.31C184.7,91.18,186.87,79,170.53,76.27c-5.17-.85-10.62,1.31-10.62,1.31s8.13,8.78,6.89,15.6c6.32.84,11.13,4.6,9.62,10.56,4.45-.25,16.84,3.48,18,3.82,0,.4-.06.81-.11,1.24,1.52.34,3.62,3,3.62,3s2.64-2.1,4.19-2.1c0-.42.11-.83.17-1.22,1.18-.09,14.08-1,18.37.23-.16-6.14,5.37-8.74,11.72-8.17.29-6.93,10.17-13.69,10.17-13.69s-4.85-3.31-10.08-3.62C215.91,82.21,215.32,94.61,203.12,103Z" style="fill:#263238"></path></g></svg>